<?xml version="1.0" encoding="iso-8859-1"?>
<!-- Generator: Adobe Illustrator 17.1.0, SVG Export Plug-In . SVG Version: 6.00 Build 0)  -->
<!DOCTYPE svg PUBLIC "-//W3C//DTD SVG 1.1//EN" "http://www.w3.org/Graphics/SVG/1.1/DTD/svg11.dtd">
<svg version="1.1" id="Capa_1" xmlns="http://www.w3.org/2000/svg" xmlns:xlink="http://www.w3.org/1999/xlink" x="0px" y="0px"
	 viewBox="0 0 64 64" style="enable-background:new 0 0 64 64;" xml:space="preserve">
<g>
	<path d="M21.125,62.064h20.352c3.01,0,5.458-2.448,5.458-5.458V8.4c0-3.01-2.448-5.458-5.458-5.458H21.125
		c-3.01,0-5.458,2.448-5.458,5.458v48.206C15.667,59.616,18.115,62.064,21.125,62.064z M17.167,8.4c0-2.183,1.775-3.958,3.958-3.958
		h20.352c2.183,0,3.958,1.775,3.958,3.958v48.206c0,2.183-1.775,3.958-3.958,3.958H21.125c-2.183,0-3.958-1.775-3.958-3.958V8.4z"/>
	<path d="M31.301,51.377c-1.748,0-3.17,1.422-3.17,3.171c0,1.748,1.422,3.17,3.17,3.17c1.748,0,3.17-1.422,3.17-3.17
		C34.471,52.8,33.049,51.377,31.301,51.377z M31.301,56.968c-1.334,0-2.42-1.085-2.42-2.42c0-1.334,1.086-2.421,2.42-2.421
		s2.42,1.086,2.42,2.421C33.721,55.882,32.635,56.968,31.301,56.968z"/>
	<path d="M18.97,50.319h24.661c0.207,0,0.375-0.168,0.375-0.375V6.665c0-0.207-0.168-0.375-0.375-0.375H18.97
		c-0.207,0-0.375,0.168-0.375,0.375v43.279C18.595,50.151,18.763,50.319,18.97,50.319z M20.345,7.04h21.911c0.552,0,1,0.448,1,1
		v40.529c0,0.552-0.448,1-1,1H20.345c-0.552,0-1-0.448-1-1V8.04C19.345,7.488,19.793,7.04,20.345,7.04z"/>
	<path d="M32.253,53.219h-1.904c-0.207,0-0.375,0.168-0.375,0.375V55.5c0,0.207,0.168,0.375,0.375,0.375h1.904
		c0.207,0,0.375-0.168,0.375-0.375v-1.906C32.628,53.387,32.46,53.219,32.253,53.219z M31.301,55.125
		c-0.319,0-0.577-0.259-0.577-0.578c0-0.319,0.258-0.578,0.577-0.578c0.319,0,0.577,0.259,0.577,0.578
		C31.878,54.867,31.619,55.125,31.301,55.125z"/>
</g>
</svg>
